<svg xmlns="http://www.w3.org/2000/svg" xmlns:xlink="http://www.w3.org/1999/xlink" width="1000" height="1000" viewBox="0 0 1000 1000">
  <defs>
    <style>
      .cls-1, .cls-2 {
        fill-rule: evenodd;
      }

      .cls-1 {
        fill: url(#linear-gradient);
      }

      .cls-2 {
        fill: url(#linear-gradient-2);
      }
    </style>
    <linearGradient id="linear-gradient" x1="199.843" y1="801.219" x2="814.782" y2="186.281" gradientUnits="userSpaceOnUse">
      <stop offset="0" stop-color="#70f"/>
      <stop offset="1" stop-color="#eb4808" stop-opacity="0"/>
    </linearGradient>
    <linearGradient id="linear-gradient-2" x1="238.844" y1="761.156" x2="761.156" y2="238.844" gradientUnits="userSpaceOnUse">
      <stop offset="0" stop-color="#70f" stop-opacity="0.996"/>
      <stop offset="1" stop-color="#eb4808"/>
    </linearGradient>
  </defs>
  <circle id="Elipse_2" data-name="Elipse 2" cx="499.984" cy="500" r="489.891"/>
  <path id="Preenchimento_Gradiente_1" data-name="Preenchimento Gradiente 1" class="cls-1" d="M206,451H560V275c0-24.568-3.728-58.417,7-73,8.255-11.222,29.758-19.5,51-14,34.3,8.889,29.006,49.05,29,92V532l3-1L806,390c15.654-12.579,39.165-39.843,66-20,13.723,10.148,20.348,35.267,8,52L733,554,868,720c15.217,19.655,37.852,51.062,8,73-33.047,24.286-56.34-11.151-71-30L676,605h-2l-27,26c0.319,24.573-1.6,76.625-1,107,0.821,41.75-9.784,55.44-40,58-10.519.891-18.989-.448-26-4-22.8-11.55-20.006-42.546-20-77V523H206V703c0,24.552,2.39,63.786-6,75-8.053,10.764-26.817,22.728-48,16-29.434-9.348-27.99-35.765-27.823-50.966C124,659.3,124,655.6,124,651.9V329c0.342-2.415.291-83.041,0-98-0.266-13.683,3.428-19.423,10-29,15.579-22.7,59.045-15.609,69,8,3.329,7.9,2.961,18.985,3,31,0.048,14.942,0,31.261,0,44V451Zm0,0H560V275c0-24.568-3.728-58.417,7-73,8.255-11.222,29.758-19.5,51-14,34.3,8.889,29.006,49.05,29,92V532l3-1L806,390c15.654-12.579,39.165-39.843,66-20,13.723,10.148,20.348,35.267,8,52L733,554,868,720c15.217,19.655,37.852,51.062,8,73-33.047,24.286-56.34-11.151-71-30L676,605h-2l-27,26c0.319,24.573-1.6,76.625-1,107,0.821,41.75-9.784,55.44-40,58-10.519.891-18.989-.448-26-4-22.8-11.55-20.006-42.546-20-77V523H206V703c0,24.552,2.39,63.786-6,75-8.053,10.764-26.817,22.728-48,16-29.434-9.348-27.99-35.765-27.823-50.966C124,659.3,124,655.6,124,651.9V329c0.342-2.415.291-83.041,0-98-0.266-13.683,3.428-19.423,10-29,15.579-22.7,59.045-15.609,69,8,3.329,7.9,2.961,18.985,3,31,0.048,14.942,0,31.261,0,44V451Z"/>
  <path id="cores" class="cls-2" d="M244.1,463.708H544.747V314.232c0-20.865-3.166-49.612,5.945-62,7.011-9.53,25.273-16.565,43.314-11.89,29.132,7.55,24.634,41.658,24.629,78.135V532.5l2.548-.849L753.673,411.9c13.294-10.683,33.262-33.839,56.053-16.986,11.655,8.619,17.281,29.952,6.794,44.163L691.674,551.185,806.329,692.167c12.923,16.692,32.147,43.366,6.794,62-28.067,20.626-47.849-9.471-60.3-25.479L643.265,594.5h-1.7L618.635,616.58c0.271,20.87-1.356,65.077-.849,90.874,0.7,35.458-8.309,47.084-33.972,49.259-8.934.757-16.127-.381-22.081-3.4-19.363-9.809-16.991-36.134-16.986-65.4V524.857H244.1V677.729c0,20.851,2.03,54.173-5.1,63.7-6.839,9.141-22.775,19.3-40.766,13.588-25-7.939-23.771-30.375-23.63-43.284-0.15-71.117-.15-74.26-0.15-77.4V360.094c0.29-2.051.247-70.526,0-83.23-0.226-11.621,2.912-16.5,8.493-24.63,13.231-19.282,50.147-13.256,58.6,6.795,2.828,6.706,2.515,16.123,2.548,26.328,0.041,12.689,0,26.549,0,37.368V463.708Z"/>
</svg>
