<svg xmlns="http://www.w3.org/2000/svg" xmlns:xlink="http://www.w3.org/1999/xlink" width="1167.5" height="280" viewBox="0 0 934 224">
  <defs>
    <style>
      .cls-1 {
        fill-rule: evenodd;
        fill: url(#linear-gradient);
      }
    </style>
    <linearGradient id="linear-gradient" x1="13.438" y1="131.028" x2="920.5" y2="86.348" gradientUnits="userSpaceOnUse">
      <stop offset="0" stop-color="#5400f6"/>
      <stop offset="1" stop-color="#dc4c4c"/>
    </linearGradient>
  </defs>
  <path id="letras" class="cls-1" d="M38.924,21.543c-0.649,24.213-.04,48.57.674,72.932,24.378,0.719,109.389,1.256,109.638,0-0.744-1.971-.631-50.079,0-73.092,2.43-4.285,11.7-13.073,23.648,0-0.717,57.322.717,114.661,0,171.982-4.036,7.9-19.313,11.564-25.8,0-0.717-25.078.255-48.7,0-73.092-4.8-1.519-106.17-2.57-107.489,0-0.286,24.766-.821,66.153-2.15,75.242-11.739,15.24-22.9.055-23.648,0-0.686-5.1-.236-154.9,0-174.132C20.281,10.4,34.558,14.486,38.924,21.543Zm396.232-.161v101.04L497.5,68.677c19.148-4.081,12.513,18.355,12.9,17.2-11.814,7.916-49.547,41.707-47.3,40.846,13.426,15.253,34.447,39.074,49.444,60.194-2.511-3.537,8.4,18.085-17.2,15.048q-23.645-30.093-47.3-60.193l-12.9,10.748c-0.716,15.047.717,25.8,0,40.846-0.2.321,1.1,7.317-12.9,8.6-9.525.812-8.6-7.166-10.749-8.6,0.716-56.605-.717-111.077,0-167.682C415.7,7.815,431.67,15.157,435.156,21.382Zm139.736-6.449c13.147-.292,13.427,8.41,12.9,4.3,0.717,34.393-.716,68.8,0,103.19,20.78-17.913,37.265-33.682,58.044-51.595,2.041,0.68,6.053-6.466,15.447,1.416,4.623,8.1.729,11.483-.4,13.632-15.047,13.614-27.949,27.232-43,40.846v2.15c15.764,18.629,29.382,37.265,45.146,55.894,3.1,5.061,1.579,9.562,0,12.9-1.388,3.527-7.815,7.055-12.9,4.3-6.159-.1-50.261-58-51.6-58.044-2.571.252-8.6,7.166-10.749,8.6,0.7,19.4,3.906,50.331-12.9,49.445-8.421-.429-5.14-3.671-10.749-6.449,0.716-59.471-.717-114.661,0-174.132C564.1,25.593,561.508,14.91,574.892,14.933ZM342.716,92.325c8.814,9.586,16.935,23.738,17.2,34.4,1.6,23.754-.018,46.561,0,68.793-2.764,1.636-5.386,6.436-8.6,6.449-10.652.043-27.038,0.818-40.845,0-16.264-.962-29.544,2.074-40.846-2.15-25.341-9.468-43.177-32.532-40.846-70.942,0.673-11.086,6.409-21.5,8.6-25.8C257.52,63.559,309.364,56.05,342.716,92.325ZM841,72.3c43.968-14.881,88.771,21.1,77.857,65.174-0.627,2.531-.725,4.305-2.15,6.449h-96.74c14.036,50.76,55.811,38.617,77.392,25.8,10.005-2.264,11.808,2.887,12.9,4.3-0.138.585,5.366,6.666,0,12.9C803.393,248.04,756.356,105.764,841,72.3ZM729.676,70.827c7.741-.17,6.44-0.595,12.9,6.449,0.955,1.539-.195,106,0,113.938,0.281,11.4-17.557,13.17-23.647,4.3V77.276C721.076,75.843,722.877,70.336,729.676,70.827Zm-470.8,38.7c-12.936,16.8-8.164,45.086,3.68,57.817,10.972,11.794,32.29,16.147,50.064,8.826,10.742-5.614,37.476-36.6,12.9-68.793C306.589,82.579,275.831,87.5,258.875,109.523ZM847.913,90.175c-15.973,9.888-22.417,13.7-27.947,34.4h79.542q-1.075-4.3-2.15-8.6c-4.882-10.2-8.916-16.7-19.348-21.5C868.054,88.713,860.6,90.165,847.913,90.175ZM38.924,21.543c-0.649,24.213-.04,48.57.674,72.932,24.378,0.719,109.389,1.256,109.638,0-0.744-1.971-.631-50.079,0-73.092,2.43-4.285,11.7-13.073,23.648,0-0.717,57.322.717,114.661,0,171.982-4.036,7.9-19.313,11.564-25.8,0-0.717-25.078.255-48.7,0-73.092-4.8-1.519-106.17-2.57-107.489,0-0.286,24.766-.821,66.153-2.15,75.242-11.739,15.24-22.9.055-23.648,0-0.686-5.1-.236-154.9,0-174.132C20.281,10.4,34.558,14.486,38.924,21.543Zm396.232-.161v101.04L497.5,68.677c19.148-4.081,12.513,18.355,12.9,17.2-11.814,7.916-49.547,41.707-47.3,40.846,13.426,15.253,34.447,39.074,49.444,60.194-2.511-3.537,8.4,18.085-17.2,15.048q-23.645-30.093-47.3-60.193l-12.9,10.748c-0.716,15.047.717,25.8,0,40.846-0.2.321,1.1,7.317-12.9,8.6-9.525.812-8.6-7.166-10.749-8.6,0.716-56.605-.717-111.077,0-167.682C415.7,7.815,431.67,15.157,435.156,21.382Zm139.736-6.449c13.147-.292,13.427,8.41,12.9,4.3,0.717,34.393-.716,68.8,0,103.19,20.78-17.913,37.265-33.682,58.044-51.595,2.041,0.68,6.053-6.466,15.447,1.416,4.623,8.1.729,11.483-.4,13.632-15.047,13.614-27.949,27.232-43,40.846v2.15c15.764,18.629,29.382,37.265,45.146,55.894,3.1,5.061,1.579,9.562,0,12.9-1.388,3.527-7.815,7.055-12.9,4.3-6.159-.1-50.261-58-51.6-58.044-2.571.252-8.6,7.166-10.749,8.6,0.7,19.4,3.906,50.331-12.9,49.445-8.421-.429-5.14-3.671-10.749-6.449,0.716-59.471-.717-114.661,0-174.132C564.1,25.593,561.508,14.91,574.892,14.933ZM342.716,92.325c8.814,9.586,16.935,23.738,17.2,34.4,1.6,23.754-.018,46.561,0,68.793-2.764,1.636-5.386,6.436-8.6,6.449-10.652.043-27.038,0.818-40.845,0-16.264-.962-29.544,2.074-40.846-2.15-25.341-9.468-43.177-32.532-40.846-70.942,0.673-11.086,6.409-21.5,8.6-25.8C257.52,63.559,309.364,56.05,342.716,92.325ZM841,72.3c43.968-14.881,88.771,21.1,77.857,65.174-0.627,2.531-.725,4.305-2.15,6.449h-96.74c14.036,50.76,55.811,38.617,77.392,25.8,10.005-2.264,11.808,2.887,12.9,4.3-0.138.585,5.366,6.666,0,12.9C803.393,248.04,756.356,105.764,841,72.3ZM729.676,70.827c7.741-.17,6.44-0.595,12.9,6.449,0.955,1.539-.195,106,0,113.938,0.281,11.4-17.557,13.17-23.647,4.3V77.276C721.076,75.843,722.877,70.336,729.676,70.827Zm-470.8,38.7c-12.936,16.8-8.164,45.086,3.68,57.817,10.972,11.794,32.29,16.147,50.064,8.826,10.742-5.614,37.476-36.6,12.9-68.793C306.589,82.579,275.831,87.5,258.875,109.523ZM847.913,90.175c-15.973,9.888-22.417,13.7-27.947,34.4h79.542q-1.075-4.3-2.15-8.6c-4.882-10.2-8.916-16.7-19.348-21.5C868.054,88.713,860.6,90.165,847.913,90.175ZM38.924,21.543c-0.649,24.213-.04,48.57.674,72.932,24.378,0.719,109.389,1.256,109.638,0-0.744-1.971-.631-50.079,0-73.092,2.43-4.285,11.7-13.073,23.648,0-0.717,57.322.717,114.661,0,171.982-4.036,7.9-19.313,11.564-25.8,0-0.717-25.078.255-48.7,0-73.092-4.8-1.519-106.17-2.57-107.489,0-0.286,24.766-.821,66.153-2.15,75.242-11.739,15.24-22.9.055-23.648,0-0.686-5.1-.236-154.9,0-174.132C20.281,10.4,34.558,14.486,38.924,21.543Zm396.232-.161v101.04L497.5,68.677c19.148-4.081,12.513,18.355,12.9,17.2-11.814,7.916-49.547,41.707-47.3,40.846,13.426,15.253,34.447,39.074,49.444,60.194-2.511-3.537,8.4,18.085-17.2,15.048q-23.645-30.093-47.3-60.193l-12.9,10.748c-0.716,15.047.717,25.8,0,40.846-0.2.321,1.1,7.317-12.9,8.6-9.525.812-8.6-7.166-10.749-8.6,0.716-56.605-.717-111.077,0-167.682C415.7,7.815,431.67,15.157,435.156,21.382Zm139.736-6.449c13.147-.292,13.427,8.41,12.9,4.3,0.717,34.393-.716,68.8,0,103.19,20.78-17.913,37.265-33.682,58.044-51.595,2.041,0.68,6.053-6.466,15.447,1.416,4.623,8.1.729,11.483-.4,13.632-15.047,13.614-27.949,27.232-43,40.846v2.15c15.764,18.629,29.382,37.265,45.146,55.894,3.1,5.061,1.579,9.562,0,12.9-1.388,3.527-7.815,7.055-12.9,4.3-6.159-.1-50.261-58-51.6-58.044-2.571.252-8.6,7.166-10.749,8.6,0.7,19.4,3.906,50.331-12.9,49.445-8.421-.429-5.14-3.671-10.749-6.449,0.716-59.471-.717-114.661,0-174.132C564.1,25.593,561.508,14.91,574.892,14.933ZM342.716,92.325c8.814,9.586,16.935,23.738,17.2,34.4,1.6,23.754-.018,46.561,0,68.793-2.764,1.636-5.386,6.436-8.6,6.449-10.652.043-27.038,0.818-40.845,0-16.264-.962-29.544,2.074-40.846-2.15-25.341-9.468-43.177-32.532-40.846-70.942,0.673-11.086,6.409-21.5,8.6-25.8C257.52,63.559,309.364,56.05,342.716,92.325ZM841,72.3c43.968-14.881,88.771,21.1,77.857,65.174-0.627,2.531-.725,4.305-2.15,6.449h-96.74c14.036,50.76,55.811,38.617,77.392,25.8,10.005-2.264,11.808,2.887,12.9,4.3-0.138.585,5.366,6.666,0,12.9C803.393,248.04,756.356,105.764,841,72.3ZM729.676,70.827c7.741-.17,6.44-0.595,12.9,6.449,0.955,1.539-.195,106,0,113.938,0.281,11.4-17.557,13.17-23.647,4.3V77.276C721.076,75.843,722.877,70.336,729.676,70.827Zm-470.8,38.7c-12.936,16.8-8.164,45.086,3.68,57.817,10.972,11.794,32.29,16.147,50.064,8.826,10.742-5.614,37.476-36.6,12.9-68.793C306.589,82.579,275.831,87.5,258.875,109.523ZM847.913,90.175c-15.973,9.888-22.417,13.7-27.947,34.4h79.542q-1.075-4.3-2.15-8.6c-4.882-10.2-8.916-16.7-19.348-21.5C868.054,88.713,860.6,90.165,847.913,90.175Z"/>
</svg>
